<?xml version="1.0" encoding="UTF-8"?><svg xmlns="http://www.w3.org/2000/svg" xmlns:xlink="http://www.w3.org/1999/xlink" fill-opacity="1" color-rendering="auto" color-interpolation="auto" text-rendering="auto" stroke="black" stroke-linecap="square" width="817" stroke-miterlimit="10" shape-rendering="auto" stroke-opacity="1" fill="black" stroke-dasharray="none" font-weight="normal" stroke-width="1" height="236" font-family="'Dialog'" font-style="normal" stroke-linejoin="miter" font-size="12px" stroke-dashoffset="0" image-rendering="auto">
  <!--Generated by ySVG 2.5-->
  <defs id="genericDefs"/>
  <g>
    <defs id="defs1">
      <clipPath clipPathUnits="userSpaceOnUse" id="clipPath1">
        <path d="M0 0 L817 0 L817 236 L0 236 L0 0 Z"/>
      </clipPath>
      <clipPath clipPathUnits="userSpaceOnUse" id="clipPath2">
        <path d="M68 373 L885 373 L885 609 L68 609 L68 373 Z"/>
      </clipPath>
      <clipPath clipPathUnits="userSpaceOnUse" id="clipPath3">
        <path d="M64 369 L881 369 L881 605 L64 605 L64 369 Z"/>
      </clipPath>
    </defs>
    <g transform="matrix(1,0,0,1,-68,-373)" fill-opacity="0.502" fill="rgb(202,236,255)" text-rendering="geometricPrecision" shape-rendering="geometricPrecision" stroke="rgb(202,236,255)" stroke-opacity="0.502">
      <rect x="68.5154" y="401.3391" clip-path="url(#clipPath2)" width="120" rx="4" ry="4" height="175.4609" stroke="none"/>
    </g>
    <g fill="rgb(153,204,255)" text-rendering="geometricPrecision" shape-rendering="geometricPrecision" transform="matrix(1,0,0,1,-68,-373)" stroke="rgb(153,204,255)">
      <rect x="68.5154" width="120" height="21.4609" y="401.3391" clip-path="url(#clipPath2)" stroke="none"/>
    </g>
    <g font-size="15px" stroke-linecap="butt" transform="matrix(1,0,0,1,-68,-373)" text-rendering="geometricPrecision" font-family="sans-serif" shape-rendering="geometricPrecision" stroke-miterlimit="1.45">
      <text x="81.0069" xml:space="preserve" y="417.2624" clip-path="url(#clipPath2)" stroke="none">Source Code</text>
    </g>
    <g stroke-linecap="butt" transform="matrix(1,0,0,1,-68,-373)" fill="rgb(102,102,153)" text-rendering="geometricPrecision" shape-rendering="geometricPrecision" stroke="rgb(102,102,153)" stroke-miterlimit="1.45">
      <rect x="68.5154" y="401.3391" clip-path="url(#clipPath2)" fill="none" width="120" rx="4" ry="4" height="175.4609"/>
    </g>
    <g fill="rgb(255,204,0)" text-rendering="geometricPrecision" shape-rendering="geometricPrecision" transform="matrix(1,0,0,1,-68,-373)" stroke="rgb(255,204,0)">
      <rect x="84.8406" y="465.8" clip-path="url(#clipPath2)" width="81.3711" rx="4" ry="4" height="30" stroke="none"/>
    </g>
    <g text-rendering="geometricPrecision" stroke-miterlimit="1.45" shape-rendering="geometricPrecision" transform="matrix(1,0,0,1,-68,-373)" stroke-linecap="butt">
      <rect x="84.8406" y="465.8" clip-path="url(#clipPath2)" fill="none" width="81.3711" rx="4" ry="4" height="30"/>
      <text x="91.8406" xml:space="preserve" y="484.9543" clip-path="url(#clipPath2)" font-family="sans-serif" stroke="none">Vb Sources</text>
    </g>
    <g fill="rgb(255,204,0)" text-rendering="geometricPrecision" shape-rendering="geometricPrecision" transform="matrix(1,0,0,1,-68,-373)" stroke="rgb(255,204,0)">
      <rect x="83.5369" y="427.8" clip-path="url(#clipPath2)" width="83.9785" rx="4" ry="4" height="30" stroke="none"/>
    </g>
    <g text-rendering="geometricPrecision" stroke-miterlimit="1.45" shape-rendering="geometricPrecision" transform="matrix(1,0,0,1,-68,-373)" stroke-linecap="butt">
      <rect x="83.5369" y="427.8" clip-path="url(#clipPath2)" fill="none" width="83.9785" rx="4" ry="4" height="30"/>
      <text x="90.5369" xml:space="preserve" y="446.9543" clip-path="url(#clipPath2)" font-family="sans-serif" stroke="none">C# Sources</text>
    </g>
    <g fill="rgb(255,204,0)" text-rendering="geometricPrecision" shape-rendering="geometricPrecision" transform="matrix(1,0,0,1,-68,-373)" stroke="rgb(255,204,0)">
      <rect x="83.9925" y="503.8" clip-path="url(#clipPath2)" width="82.502" rx="4" ry="4" height="30" stroke="none"/>
    </g>
    <g text-rendering="geometricPrecision" stroke-miterlimit="1.45" shape-rendering="geometricPrecision" transform="matrix(1,0,0,1,-68,-373)" stroke-linecap="butt">
      <rect x="83.9925" y="503.8" clip-path="url(#clipPath2)" fill="none" width="82.502" rx="4" ry="4" height="30"/>
      <text x="90.9925" xml:space="preserve" y="522.9543" clip-path="url(#clipPath2)" font-family="sans-serif" stroke="none">F# Sources</text>
    </g>
    <g fill="rgb(255,204,0)" text-rendering="geometricPrecision" shape-rendering="geometricPrecision" transform="matrix(1,0,0,1,-68,-373)" stroke="rgb(255,204,0)">
      <rect x="112.8045" y="541.8" clip-path="url(#clipPath2)" width="25.4434" rx="4" ry="4" height="30" stroke="none"/>
    </g>
    <g text-rendering="geometricPrecision" stroke-miterlimit="1.45" shape-rendering="geometricPrecision" transform="matrix(1,0,0,1,-68,-373)" stroke-linecap="butt">
      <rect x="112.8045" y="541.8" clip-path="url(#clipPath2)" fill="none" width="25.4434" rx="4" ry="4" height="30"/>
      <text x="119.8045" xml:space="preserve" y="560.9543" clip-path="url(#clipPath2)" font-family="sans-serif" stroke="none">...</text>
    </g>
    <g transform="matrix(1,0,0,1,-68,-373)" fill-opacity="0.502" fill="rgb(202,236,255)" text-rendering="geometricPrecision" shape-rendering="geometricPrecision" stroke="rgb(202,236,255)" stroke-opacity="0.502">
      <rect x="239.5402" y="401.3391" clip-path="url(#clipPath2)" width="100.2598" rx="4" ry="4" height="175.4609" stroke="none"/>
    </g>
    <g fill="rgb(153,204,255)" text-rendering="geometricPrecision" shape-rendering="geometricPrecision" transform="matrix(1,0,0,1,-68,-373)" stroke="rgb(153,204,255)">
      <rect x="239.5402" width="100.2598" height="21.4609" y="401.3391" clip-path="url(#clipPath2)" stroke="none"/>
    </g>
    <g font-size="15px" stroke-linecap="butt" transform="matrix(1,0,0,1,-68,-373)" text-rendering="geometricPrecision" font-family="sans-serif" shape-rendering="geometricPrecision" stroke-miterlimit="1.45">
      <text x="255.9128" xml:space="preserve" y="417.2624" clip-path="url(#clipPath2)" stroke="none">Compiler</text>
    </g>
    <g stroke-linecap="butt" transform="matrix(1,0,0,1,-68,-373)" fill="rgb(102,102,153)" text-rendering="geometricPrecision" shape-rendering="geometricPrecision" stroke="rgb(102,102,153)" stroke-miterlimit="1.45">
      <rect x="239.5402" y="401.3391" clip-path="url(#clipPath2)" fill="none" width="100.2598" rx="4" ry="4" height="175.4609"/>
    </g>
    <g fill="rgb(255,204,0)" text-rendering="geometricPrecision" shape-rendering="geometricPrecision" transform="matrix(1,0,0,1,-68,-373)" stroke="rgb(255,204,0)">
      <rect x="276.9484" y="541.8" clip-path="url(#clipPath2)" width="25.4434" rx="4" ry="4" height="30" stroke="none"/>
    </g>
    <g text-rendering="geometricPrecision" stroke-miterlimit="1.45" shape-rendering="geometricPrecision" transform="matrix(1,0,0,1,-68,-373)" stroke-linecap="butt">
      <rect x="276.9484" y="541.8" clip-path="url(#clipPath2)" fill="none" width="25.4434" rx="4" ry="4" height="30"/>
      <text x="283.9484" xml:space="preserve" y="560.9543" clip-path="url(#clipPath2)" font-family="sans-serif" stroke="none">...</text>
    </g>
    <g fill="rgb(255,204,0)" text-rendering="geometricPrecision" shape-rendering="geometricPrecision" transform="matrix(1,0,0,1,-68,-373)" stroke="rgb(255,204,0)">
      <rect x="244.9958" y="503.8" clip-path="url(#clipPath2)" width="88.7832" rx="4" ry="4" height="30" stroke="none"/>
    </g>
    <g text-rendering="geometricPrecision" stroke-miterlimit="1.45" shape-rendering="geometricPrecision" transform="matrix(1,0,0,1,-68,-373)" stroke-linecap="butt">
      <rect x="244.9958" y="503.8" clip-path="url(#clipPath2)" fill="none" width="88.7832" rx="4" ry="4" height="30"/>
      <text x="251.9958" xml:space="preserve" y="522.9543" clip-path="url(#clipPath2)" font-family="sans-serif" stroke="none">F# Compiler</text>
    </g>
    <g fill="rgb(255,204,0)" text-rendering="geometricPrecision" shape-rendering="geometricPrecision" transform="matrix(1,0,0,1,-68,-373)" stroke="rgb(255,204,0)">
      <rect x="244.5402" y="427.8" clip-path="url(#clipPath2)" width="90.2598" rx="4" ry="4" height="30" stroke="none"/>
    </g>
    <g text-rendering="geometricPrecision" stroke-miterlimit="1.45" shape-rendering="geometricPrecision" transform="matrix(1,0,0,1,-68,-373)" stroke-linecap="butt">
      <rect x="244.5402" y="427.8" clip-path="url(#clipPath2)" fill="none" width="90.2598" rx="4" ry="4" height="30"/>
      <text x="251.5402" xml:space="preserve" y="446.9543" clip-path="url(#clipPath2)" font-family="sans-serif" stroke="none">C# Compiler</text>
    </g>
    <g fill="rgb(255,204,0)" text-rendering="geometricPrecision" shape-rendering="geometricPrecision" transform="matrix(1,0,0,1,-68,-373)" stroke="rgb(255,204,0)">
      <rect x="245.8439" y="465.8" clip-path="url(#clipPath2)" width="87.6523" rx="4" ry="4" height="30" stroke="none"/>
    </g>
    <g text-rendering="geometricPrecision" stroke-miterlimit="1.45" shape-rendering="geometricPrecision" transform="matrix(1,0,0,1,-68,-373)" stroke-linecap="butt">
      <rect x="245.8439" y="465.8" clip-path="url(#clipPath2)" fill="none" width="87.6523" rx="4" ry="4" height="30"/>
      <text x="252.8439" xml:space="preserve" y="484.9543" clip-path="url(#clipPath2)" font-family="sans-serif" stroke="none">Vb Compiler</text>
      <path fill="none" d="M188.5233 489.0695 L231.5412 489.0695" clip-path="url(#clipPath2)"/>
      <path d="M239.5412 489.0695 L227.5412 484.0695 L230.5412 489.0695 L227.5412 494.0695 Z" clip-path="url(#clipPath2)" stroke="none"/>
    </g>
    <g fill="rgb(245,245,245)" text-rendering="geometricPrecision" shape-rendering="geometricPrecision" transform="matrix(1,0,0,1,-68,-373)" stroke="rgb(245,245,245)">
      <rect x="662.0072" y="440.8391" clip-path="url(#clipPath2)" width="222.1372" rx="4" ry="4" height="96.4609" stroke="none"/>
      <rect x="662.0072" y="440.8391" clip-path="url(#clipPath2)" fill="rgb(235,235,235)" width="222.1372" height="21.4609" stroke="none"/>
    </g>
    <g font-size="15px" stroke-linecap="butt" transform="matrix(1,0,0,1,-68,-373)" text-rendering="geometricPrecision" font-family="sans-serif" shape-rendering="geometricPrecision" stroke-miterlimit="1.45">
      <text x="736.0409" xml:space="preserve" y="456.7624" clip-path="url(#clipPath2)" stroke="none">Execution</text>
      <rect x="662.0072" y="440.8391" clip-path="url(#clipPath2)" fill="none" width="222.1372" stroke-dasharray="6,2" rx="4" ry="4" height="96.4609"/>
    </g>
    <g fill="rgb(255,204,0)" text-rendering="geometricPrecision" shape-rendering="geometricPrecision" transform="matrix(1,0,0,1,-68,-373)" stroke="rgb(255,204,0)">
      <rect x="667.7162" y="467.3" clip-path="url(#clipPath2)" width="86.2344" rx="4" ry="4" height="30" stroke="none"/>
    </g>
    <g text-rendering="geometricPrecision" stroke-miterlimit="1.45" shape-rendering="geometricPrecision" transform="matrix(1,0,0,1,-68,-373)" stroke-linecap="butt">
      <rect x="667.7162" y="467.3" clip-path="url(#clipPath2)" fill="none" width="86.2344" rx="4" ry="4" height="30"/>
      <text x="674.7162" xml:space="preserve" y="486.4543" clip-path="url(#clipPath2)" font-family="sans-serif" stroke="none">JIT Compiler</text>
    </g>
    <g fill="rgb(255,204,0)" text-rendering="geometricPrecision" shape-rendering="geometricPrecision" transform="matrix(1,0,0,1,-68,-373)" stroke="rgb(255,204,0)">
      <rect x="780.3768" y="467.3" clip-path="url(#clipPath2)" width="98.7676" rx="4" ry="4" height="30" stroke="none"/>
    </g>
    <g text-rendering="geometricPrecision" stroke-miterlimit="1.45" shape-rendering="geometricPrecision" transform="matrix(1,0,0,1,-68,-373)" stroke-linecap="butt">
      <rect x="780.3768" y="467.3" clip-path="url(#clipPath2)" fill="none" width="98.7676" rx="4" ry="4" height="30"/>
      <text x="787.3768" xml:space="preserve" y="486.4543" clip-path="url(#clipPath2)" font-family="sans-serif" stroke="none">Machine Code</text>
    </g>
    <g fill="rgb(255,204,0)" text-rendering="geometricPrecision" shape-rendering="geometricPrecision" transform="matrix(1,0,0,1,-68,-373)" stroke="rgb(255,204,0)">
      <rect x="705.8034" y="502.3" clip-path="url(#clipPath2)" width="122.7207" rx="4" ry="4" height="30" stroke="none"/>
    </g>
    <g text-rendering="geometricPrecision" stroke-miterlimit="1.45" shape-rendering="geometricPrecision" transform="matrix(1,0,0,1,-68,-373)" stroke-linecap="butt">
      <rect x="705.8034" y="502.3" clip-path="url(#clipPath2)" fill="none" width="122.7207" rx="4" ry="4" height="30"/>
      <text x="712.8033" xml:space="preserve" y="521.4543" clip-path="url(#clipPath2)" font-family="sans-serif" stroke="none">Garbage Collector</text>
    </g>
    <g fill="rgb(255,204,0)" text-rendering="geometricPrecision" shape-rendering="geometricPrecision" transform="matrix(1,0,0,1,-68,-373)" stroke="rgb(255,204,0)">
      <rect x="550.6211" y="455.0695" clip-path="url(#clipPath2)" width="73.2207" rx="4" ry="4" height="68" stroke="none"/>
    </g>
    <g text-rendering="geometricPrecision" stroke-miterlimit="1.45" shape-rendering="geometricPrecision" transform="matrix(1,0,0,1,-68,-373)" stroke-linecap="butt">
      <rect x="550.6211" y="455.0695" clip-path="url(#clipPath2)" fill="none" width="73.2207" rx="4" ry="4" height="68"/>
      <text x="560.208" xml:space="preserve" y="472.2707" clip-path="url(#clipPath2)" font-family="sans-serif" stroke="none">Common</text>
      <text x="557.6211" xml:space="preserve" y="486.2394" clip-path="url(#clipPath2)" font-family="sans-serif" stroke="none">Language</text>
      <text x="561.9014" xml:space="preserve" y="500.2082" clip-path="url(#clipPath2)" font-family="sans-serif" stroke="none">Runtime</text>
      <text x="570.8486" xml:space="preserve" y="514.1769" clip-path="url(#clipPath2)" font-family="sans-serif" stroke="none">(CLR)</text>
      <path fill="none" d="M753.9503 482.3 L772.3433 482.3" clip-path="url(#clipPath2)"/>
      <path d="M780.3433 482.3 L768.3433 477.3 L771.3433 482.3 L768.3433 487.3 Z" clip-path="url(#clipPath2)" stroke="none"/>
      <path fill="none" d="M623.8468 489.0695 L653.992 489.0695" clip-path="url(#clipPath2)"/>
      <path d="M661.992 489.0695 L649.992 484.0695 L652.992 489.0695 L649.992 494.0695 Z" clip-path="url(#clipPath2)" stroke="none"/>
    </g>
    <g fill="rgb(210,210,210)" text-rendering="geometricPrecision" shape-rendering="geometricPrecision" transform="matrix(1,0,0,1,-68,-373) translate(4,4)" stroke="rgb(210,210,210)">
      <rect x="390.8248" width="121.6309" height="231.7914" y="373.1738" clip-path="url(#clipPath3)" stroke="none"/>
    </g>
    <g fill="rgb(242,240,216)" text-rendering="geometricPrecision" shape-rendering="geometricPrecision" transform="matrix(1,0,0,1,-68,-373)" stroke="rgb(242,240,216)">
      <rect x="390.8248" width="121.6309" height="231.7914" y="373.1738" clip-path="url(#clipPath2)" stroke="none"/>
      <rect x="390.8248" y="373.1738" clip-path="url(#clipPath2)" fill="rgb(183,182,158)" width="121.6309" height="21.4609" stroke="none"/>
    </g>
    <g font-size="15px" stroke-linecap="butt" transform="matrix(1,0,0,1,-68,-373)" text-rendering="geometricPrecision" font-family="sans-serif" shape-rendering="geometricPrecision" stroke-miterlimit="1.45">
      <text x="415.4915" xml:space="preserve" y="389.0972" clip-path="url(#clipPath2)" stroke="none">Assembly</text>
      <rect fill="none" x="390.8248" width="121.6309" height="231.7914" y="373.1738" clip-path="url(#clipPath2)"/>
    </g>
    <g fill="rgb(255,204,0)" text-rendering="geometricPrecision" shape-rendering="geometricPrecision" transform="matrix(1,0,0,1,-68,-373)" stroke="rgb(255,204,0)">
      <rect x="410.899" y="523.6957" clip-path="url(#clipPath2)" width="81.4824" rx="4" ry="4" height="30" stroke="none"/>
    </g>
    <g text-rendering="geometricPrecision" stroke-miterlimit="1.45" shape-rendering="geometricPrecision" transform="matrix(1,0,0,1,-68,-373)" stroke-linecap="butt">
      <rect x="410.899" y="523.6957" clip-path="url(#clipPath2)" fill="none" width="81.4824" rx="4" ry="4" height="30"/>
      <text x="417.899" xml:space="preserve" y="542.85" clip-path="url(#clipPath2)" font-family="sans-serif" stroke="none">References</text>
    </g>
    <g fill="rgb(255,204,0)" text-rendering="geometricPrecision" shape-rendering="geometricPrecision" transform="matrix(1,0,0,1,-68,-373)" stroke="rgb(255,204,0)">
      <rect x="416.2281" y="559.9652" clip-path="url(#clipPath2)" width="70.8242" rx="4" ry="4" height="30" stroke="none"/>
    </g>
    <g text-rendering="geometricPrecision" stroke-miterlimit="1.45" shape-rendering="geometricPrecision" transform="matrix(1,0,0,1,-68,-373)" stroke-linecap="butt">
      <rect x="416.2281" y="559.9652" clip-path="url(#clipPath2)" fill="none" width="70.8242" rx="4" ry="4" height="30"/>
      <text x="423.2281" xml:space="preserve" y="579.1195" clip-path="url(#clipPath2)" font-family="sans-serif" stroke="none">Metadata</text>
    </g>
    <g fill="rgb(255,204,0)" text-rendering="geometricPrecision" shape-rendering="geometricPrecision" transform="matrix(1,0,0,1,-68,-373)" stroke="rgb(255,204,0)">
      <rect x="413.5973" y="487.4262" clip-path="url(#clipPath2)" width="76.0859" rx="4" ry="4" height="30" stroke="none"/>
    </g>
    <g text-rendering="geometricPrecision" stroke-miterlimit="1.45" shape-rendering="geometricPrecision" transform="matrix(1,0,0,1,-68,-373)" stroke-linecap="butt">
      <rect x="413.5973" y="487.4262" clip-path="url(#clipPath2)" fill="none" width="76.0859" rx="4" ry="4" height="30"/>
      <text x="420.5973" xml:space="preserve" y="506.5805" clip-path="url(#clipPath2)" font-family="sans-serif" stroke="none">Resources</text>
    </g>
    <g fill="rgb(255,204,0)" text-rendering="geometricPrecision" shape-rendering="geometricPrecision" transform="matrix(1,0,0,1,-68,-373)" stroke="rgb(255,204,0)">
      <rect x="405.8248" y="409.6348" clip-path="url(#clipPath2)" width="91.6309" rx="4" ry="4" height="68" stroke="none"/>
    </g>
    <g text-rendering="geometricPrecision" stroke-miterlimit="1.45" shape-rendering="geometricPrecision" transform="matrix(1,0,0,1,-68,-373)" stroke-linecap="butt">
      <rect x="405.8248" y="409.6348" clip-path="url(#clipPath2)" fill="none" width="91.6309" rx="4" ry="4" height="68"/>
      <text x="424.6168" xml:space="preserve" y="426.8359" clip-path="url(#clipPath2)" font-family="sans-serif" stroke="none">Common</text>
      <text x="412.8248" xml:space="preserve" y="440.8047" clip-path="url(#clipPath2)" font-family="sans-serif" stroke="none">Intermediate</text>
      <text x="422.0299" xml:space="preserve" y="454.7734" clip-path="url(#clipPath2)" font-family="sans-serif" stroke="none">Language</text>
      <text x="437.6568" xml:space="preserve" y="468.7422" clip-path="url(#clipPath2)" font-family="sans-serif" stroke="none">(CIL)</text>
    </g>
    <g fill="rgb(255,204,0)" text-rendering="geometricPrecision" shape-rendering="geometricPrecision" transform="matrix(1,0,0,1,-68,-373)" stroke="rgb(255,204,0)">
      <rect x="681.7841" y="559.9652" clip-path="url(#clipPath2)" width="80.9023" rx="4" ry="4" height="30" stroke="none"/>
    </g>
    <g text-rendering="geometricPrecision" stroke-miterlimit="1.45" shape-rendering="geometricPrecision" transform="matrix(1,0,0,1,-68,-373)" stroke-linecap="butt">
      <rect x="681.7841" y="559.9652" clip-path="url(#clipPath2)" fill="none" width="80.9023" rx="4" ry="4" height="30"/>
      <text x="688.7841" xml:space="preserve" y="572.1351" clip-path="url(#clipPath2)" font-family="sans-serif" stroke="none">.NET Class </text>
      <text x="701.2558" xml:space="preserve" y="586.1039" clip-path="url(#clipPath2)" font-family="sans-serif" stroke="none">Library</text>
    </g>
    <g fill="rgb(255,204,0)" text-rendering="geometricPrecision" shape-rendering="geometricPrecision" transform="matrix(1,0,0,1,-68,-373)" stroke="rgb(255,204,0)">
      <rect x="779.5313" y="559.9652" clip-path="url(#clipPath2)" width="79.9648" rx="4" ry="4" height="30" stroke="none"/>
    </g>
    <g text-rendering="geometricPrecision" stroke-miterlimit="1.45" shape-rendering="geometricPrecision" transform="matrix(1,0,0,1,-68,-373)" stroke-linecap="butt">
      <rect x="779.5313" y="559.9652" clip-path="url(#clipPath2)" fill="none" width="79.9648" rx="4" ry="4" height="30"/>
      <text x="786.5313" xml:space="preserve" y="572.1351" clip-path="url(#clipPath2)" font-family="sans-serif" stroke="none">Third Party</text>
      <text x="793.6006" xml:space="preserve" y="586.1039" clip-path="url(#clipPath2)" font-family="sans-serif" stroke="none">Libraries</text>
      <path fill="none" d="M339.7717 489.0695 L382.8248 489.0695" clip-path="url(#clipPath2)"/>
      <path d="M390.8248 489.0695 L378.8248 484.0695 L381.8248 489.0695 L378.8248 494.0695 Z" clip-path="url(#clipPath2)" stroke="none"/>
      <path fill="none" d="M512.4557 489.0695 L542.6103 489.0695" clip-path="url(#clipPath2)"/>
      <path d="M550.6103 489.0695 L538.6103 484.0695 L541.6103 489.0695 L538.6103 494.0695 Z" clip-path="url(#clipPath2)" stroke="none"/>
      <path fill="none" stroke-dasharray="6,2" d="M722.2353 559.9828 L722.2353 538.6957" clip-path="url(#clipPath2)"/>
      <path fill="none" stroke-dasharray="6,2" d="M681.7715 569.5416 L492.402 544.1592" clip-path="url(#clipPath2)"/>
      <path fill="none" stroke-dasharray="6,2" d="M819.5137 560.0002 L819.5137 537.3137" clip-path="url(#clipPath2)"/>
      <path fill="none" stroke-dasharray="6,2" d="M779.5669 574.9652 L762.6865 574.9652" clip-path="url(#clipPath2)"/>
    </g>
  </g>
</svg>
