<?xml version="1.0" encoding="UTF-8"?><svg xmlns="http://www.w3.org/2000/svg" xmlns:xlink="http://www.w3.org/1999/xlink" fill-opacity="1" color-rendering="auto" color-interpolation="auto" text-rendering="auto" stroke="black" stroke-linecap="square" width="911" stroke-miterlimit="10" shape-rendering="auto" stroke-opacity="1" fill="black" stroke-dasharray="none" font-weight="normal" stroke-width="1" height="410" font-family="'Dialog'" font-style="normal" stroke-linejoin="miter" font-size="12px" stroke-dashoffset="0" image-rendering="auto">
  <!--Generated by ySVG 2.5-->
  <defs id="genericDefs"/>
  <g>
    <defs id="defs1">
      <clipPath clipPathUnits="userSpaceOnUse" id="clipPath1">
        <path d="M0 0 L911 0 L911 410 L0 410 L0 0 Z"/>
      </clipPath>
      <clipPath clipPathUnits="userSpaceOnUse" id="clipPath2">
        <path d="M-15 -15 L896 -15 L896 395 L-15 395 L-15 -15 Z"/>
      </clipPath>
    </defs>
    <g fill="white" text-rendering="geometricPrecision" shape-rendering="geometricPrecision" transform="translate(15,15)" stroke="white">
      <rect x="-15" width="911" height="410" y="-15" clip-path="url(#clipPath2)" stroke="none"/>
    </g>
    <g fill="white" text-rendering="geometricPrecision" shape-rendering="geometricPrecision" transform="matrix(1,0,0,1,15,15)" stroke="white">
      <rect x="385.4629" width="57.3477" height="30" y="0" clip-path="url(#clipPath2)" stroke="none"/>
    </g>
    <g text-rendering="geometricPrecision" stroke-miterlimit="1.45" shape-rendering="geometricPrecision" transform="matrix(1,0,0,1,15,15)" stroke-linecap="butt">
      <rect fill="none" x="385.4629" width="57.3477" height="30" y="0" clip-path="url(#clipPath2)"/>
      <text x="392.4629" xml:space="preserve" y="19.1543" clip-path="url(#clipPath2)" font-family="monospace" stroke="none">Object</text>
    </g>
    <g fill="rgb(204,255,204)" text-rendering="geometricPrecision" shape-rendering="geometricPrecision" transform="matrix(1,0,0,1,15,15)" stroke="rgb(204,255,204)">
      <rect x="583.7197" width="122.3691" height="29.8285" y="70.1715" clip-path="url(#clipPath2)" stroke="none"/>
    </g>
    <g text-rendering="geometricPrecision" stroke-miterlimit="1.45" stroke-dasharray="6,2" shape-rendering="geometricPrecision" transform="matrix(1,0,0,1,15,15)" stroke-linecap="butt">
      <rect fill="none" x="583.7197" width="122.3691" height="29.8285" y="70.1715" clip-path="url(#clipPath2)"/>
      <text x="590.7197" y="89.24" clip-path="url(#clipPath2)" font-family="monospace" stroke-dasharray="none" stroke="none" xml:space="preserve">Reference Types</text>
    </g>
    <g fill="rgb(204,255,255)" text-rendering="geometricPrecision" shape-rendering="geometricPrecision" transform="matrix(1,0,0,1,15,15)" stroke="rgb(204,255,255)">
      <rect x="136.6338" width="93.4707" height="30.1715" y="70" clip-path="url(#clipPath2)" stroke="none"/>
    </g>
    <g text-rendering="geometricPrecision" stroke-miterlimit="1.45" stroke-dasharray="6,2" shape-rendering="geometricPrecision" transform="matrix(1,0,0,1,15,15)" stroke-linecap="butt">
      <rect fill="none" x="136.6338" width="93.4707" height="30.1715" y="70" clip-path="url(#clipPath2)"/>
      <text x="143.6338" y="89.24" clip-path="url(#clipPath2)" font-family="monospace" stroke-dasharray="none" stroke="none" xml:space="preserve">Value Types</text>
    </g>
    <g fill="rgb(153,204,0)" text-rendering="geometricPrecision" shape-rendering="geometricPrecision" transform="matrix(1,0,0,1,15,15)" stroke="rgb(153,204,0)">
      <rect x="494.0114" width="57.3477" height="30" y="140" clip-path="url(#clipPath2)" stroke="none"/>
    </g>
    <g text-rendering="geometricPrecision" stroke-miterlimit="1.45" shape-rendering="geometricPrecision" transform="matrix(1,0,0,1,15,15)" stroke-linecap="butt">
      <rect fill="none" x="494.0114" width="57.3477" height="30" y="140" clip-path="url(#clipPath2)"/>
      <text x="501.0114" xml:space="preserve" y="159.1543" clip-path="url(#clipPath2)" font-family="monospace" stroke="none">String</text>
    </g>
    <g fill="rgb(153,204,0)" text-rendering="geometricPrecision" shape-rendering="geometricPrecision" transform="matrix(1,0,0,1,15,15)" stroke="rgb(153,204,0)">
      <rect x="816.0796" width="42.8984" height="30" y="280" clip-path="url(#clipPath2)" stroke="none"/>
    </g>
    <g text-rendering="geometricPrecision" stroke-miterlimit="1.45" shape-rendering="geometricPrecision" transform="matrix(1,0,0,1,15,15)" stroke-linecap="butt">
      <rect fill="none" x="816.0796" width="42.8984" height="30" y="280" clip-path="url(#clipPath2)"/>
      <text x="823.0796" xml:space="preserve" y="299.1543" clip-path="url(#clipPath2)" font-family="monospace" stroke="none">List</text>
    </g>
    <g fill="rgb(204,255,204)" text-rendering="geometricPrecision" shape-rendering="geometricPrecision" transform="matrix(1,0,0,1,15,15)" stroke="rgb(204,255,204)">
      <rect x="522.6274" y="280" clip-path="url(#clipPath2)" width="57.3477" rx="4" ry="4" height="30" stroke="none"/>
    </g>
    <g text-rendering="geometricPrecision" stroke-miterlimit="1.45" stroke-dasharray="6,2" shape-rendering="geometricPrecision" transform="matrix(1,0,0,1,15,15)" stroke-linecap="butt">
      <rect x="522.6274" y="280" clip-path="url(#clipPath2)" fill="none" width="57.3477" rx="4" ry="4" height="30"/>
      <text x="529.6274" y="299.1543" clip-path="url(#clipPath2)" font-family="monospace" stroke-dasharray="none" stroke="none" xml:space="preserve">Arrays</text>
    </g>
    <g fill="rgb(204,255,204)" text-rendering="geometricPrecision" shape-rendering="geometricPrecision" transform="matrix(1,0,0,1,15,15)" stroke="rgb(204,255,204)">
      <rect x="698.9966" y="280" clip-path="url(#clipPath2)" width="79.0215" rx="4" ry="4" height="30" stroke="none"/>
    </g>
    <g text-rendering="geometricPrecision" stroke-miterlimit="1.45" stroke-dasharray="6,2" shape-rendering="geometricPrecision" transform="matrix(1,0,0,1,15,15)" stroke-linecap="butt">
      <rect x="698.9966" y="280" clip-path="url(#clipPath2)" fill="none" width="79.0215" rx="4" ry="4" height="30"/>
      <text x="705.9966" y="299.1543" clip-path="url(#clipPath2)" font-family="monospace" stroke-dasharray="none" stroke="none" xml:space="preserve">Delegates</text>
    </g>
    <g fill="rgb(51,204,204)" text-rendering="geometricPrecision" shape-rendering="geometricPrecision" transform="matrix(1,0,0,1,15,15)" stroke="rgb(51,204,204)">
      <rect x="0" width="50.123" height="30" y="140.1715" clip-path="url(#clipPath2)" stroke="none"/>
    </g>
    <g text-rendering="geometricPrecision" stroke-miterlimit="1.45" shape-rendering="geometricPrecision" transform="matrix(1,0,0,1,15,15)" stroke-linecap="butt">
      <rect fill="none" x="0" width="50.123" height="30" y="140.1715" clip-path="url(#clipPath2)"/>
      <text x="7" xml:space="preserve" y="159.3258" clip-path="url(#clipPath2)" font-family="monospace" stroke="none">Int32</text>
    </g>
    <g fill="rgb(51,204,204)" text-rendering="geometricPrecision" shape-rendering="geometricPrecision" transform="matrix(1,0,0,1,15,15)" stroke="rgb(51,204,204)">
      <rect x="70.123" width="64.5723" height="30" y="140.1715" clip-path="url(#clipPath2)" stroke="none"/>
    </g>
    <g text-rendering="geometricPrecision" stroke-miterlimit="1.45" shape-rendering="geometricPrecision" transform="matrix(1,0,0,1,15,15)" stroke-linecap="butt">
      <rect fill="none" x="70.123" width="64.5723" height="30" y="140.1715" clip-path="url(#clipPath2)"/>
      <text x="77.123" xml:space="preserve" y="159.3258" clip-path="url(#clipPath2)" font-family="monospace" stroke="none">Boolean</text>
    </g>
    <g fill="rgb(51,204,204)" text-rendering="geometricPrecision" shape-rendering="geometricPrecision" transform="matrix(1,0,0,1,15,15)" stroke="rgb(51,204,204)">
      <rect x="154.6953" width="57.3477" height="30" y="140.1715" clip-path="url(#clipPath2)" stroke="none"/>
    </g>
    <g text-rendering="geometricPrecision" stroke-miterlimit="1.45" shape-rendering="geometricPrecision" transform="matrix(1,0,0,1,15,15)" stroke-linecap="butt">
      <rect fill="none" x="154.6953" width="57.3477" height="30" y="140.1715" clip-path="url(#clipPath2)"/>
      <text x="161.6953" xml:space="preserve" y="159.3258" clip-path="url(#clipPath2)" font-family="monospace" stroke="none">Double</text>
    </g>
    <g fill="rgb(204,255,255)" text-rendering="geometricPrecision" shape-rendering="geometricPrecision" transform="matrix(1,0,0,1,15,15)" stroke="rgb(204,255,255)">
      <rect x="349.8706" y="210.1715" clip-path="url(#clipPath2)" width="79.0215" rx="4" ry="4" height="30" stroke="none"/>
    </g>
    <g text-rendering="geometricPrecision" stroke-miterlimit="1.45" stroke-dasharray="6,2" shape-rendering="geometricPrecision" transform="matrix(1,0,0,1,15,15)" stroke-linecap="butt">
      <rect x="349.8706" y="210.1715" clip-path="url(#clipPath2)" fill="none" width="79.0215" rx="4" ry="4" height="30"/>
      <text x="356.8706" y="229.3258" clip-path="url(#clipPath2)" font-family="monospace" stroke-dasharray="none" stroke="none" xml:space="preserve">Nullables</text>
    </g>
    <g fill="rgb(153,204,0)" text-rendering="geometricPrecision" shape-rendering="geometricPrecision" transform="matrix(1,0,0,1,15,15)" stroke="rgb(153,204,0)">
      <rect x="559.4951" width="64.5723" height="30" y="350" clip-path="url(#clipPath2)" stroke="none"/>
    </g>
    <g text-rendering="geometricPrecision" stroke-miterlimit="1.45" shape-rendering="geometricPrecision" transform="matrix(1,0,0,1,15,15)" stroke-linecap="butt">
      <rect fill="none" x="559.4951" width="64.5723" height="30" y="350" clip-path="url(#clipPath2)"/>
      <text x="566.4951" xml:space="preserve" y="369.1543" clip-path="url(#clipPath2)" font-family="monospace" stroke="none">Int32[]</text>
    </g>
    <g fill="rgb(153,204,0)" text-rendering="geometricPrecision" shape-rendering="geometricPrecision" transform="matrix(1,0,0,1,15,15)" stroke="rgb(153,204,0)">
      <rect x="482.1475" width="57.3477" height="30" y="350" clip-path="url(#clipPath2)" stroke="none"/>
    </g>
    <g text-rendering="geometricPrecision" stroke-miterlimit="1.45" shape-rendering="geometricPrecision" transform="matrix(1,0,0,1,15,15)" stroke-linecap="butt">
      <rect fill="none" x="482.1475" width="57.3477" height="30" y="350" clip-path="url(#clipPath2)"/>
      <text x="489.1475" xml:space="preserve" y="369.1543" clip-path="url(#clipPath2)" font-family="monospace" stroke="none">List[]</text>
    </g>
    <g fill="rgb(153,204,0)" text-rendering="geometricPrecision" shape-rendering="geometricPrecision" transform="matrix(1,0,0,1,15,15)" stroke="rgb(153,204,0)">
      <rect x="750.3135" width="79.0215" height="30" y="350" clip-path="url(#clipPath2)" stroke="none"/>
    </g>
    <g text-rendering="geometricPrecision" stroke-miterlimit="1.45" shape-rendering="geometricPrecision" transform="matrix(1,0,0,1,15,15)" stroke-linecap="butt">
      <rect fill="none" x="750.3135" width="79.0215" height="30" y="350" clip-path="url(#clipPath2)"/>
      <text x="757.3135" xml:space="preserve" y="369.1543" clip-path="url(#clipPath2)" font-family="monospace" stroke="none">Action&lt;T&gt;</text>
    </g>
    <g fill="rgb(153,204,0)" text-rendering="geometricPrecision" shape-rendering="geometricPrecision" transform="matrix(1,0,0,1,15,15)" stroke="rgb(153,204,0)">
      <rect x="644.0674" width="86.2461" height="30" y="350" clip-path="url(#clipPath2)" stroke="none"/>
    </g>
    <g text-rendering="geometricPrecision" stroke-miterlimit="1.45" shape-rendering="geometricPrecision" transform="matrix(1,0,0,1,15,15)" stroke-linecap="butt">
      <rect fill="none" x="644.0674" width="86.2461" height="30" y="350" clip-path="url(#clipPath2)"/>
      <text x="651.0674" xml:space="preserve" y="369.1543" clip-path="url(#clipPath2)" font-family="monospace" stroke="none">Func&lt;T, R&gt;</text>
    </g>
    <g fill="rgb(51,204,204)" text-rendering="geometricPrecision" shape-rendering="geometricPrecision" transform="matrix(1,0,0,1,15,15)" stroke="rgb(51,204,204)">
      <rect x="320.2275" width="57.3477" height="30" y="280.1715" clip-path="url(#clipPath2)" stroke="none"/>
    </g>
    <g text-rendering="geometricPrecision" stroke-miterlimit="1.45" shape-rendering="geometricPrecision" transform="matrix(1,0,0,1,15,15)" stroke-linecap="butt">
      <rect fill="none" x="320.2275" width="57.3477" height="30" y="280.1715" clip-path="url(#clipPath2)"/>
      <text x="327.2275" xml:space="preserve" y="299.3258" clip-path="url(#clipPath2)" font-family="monospace" stroke="none">Int32?</text>
    </g>
    <g fill="rgb(51,204,204)" text-rendering="geometricPrecision" shape-rendering="geometricPrecision" transform="matrix(1,0,0,1,15,15)" stroke="rgb(51,204,204)">
      <rect x="397.5752" width="64.5723" height="30" y="280.1715" clip-path="url(#clipPath2)" stroke="none"/>
    </g>
    <g text-rendering="geometricPrecision" stroke-miterlimit="1.45" shape-rendering="geometricPrecision" transform="matrix(1,0,0,1,15,15)" stroke-linecap="butt">
      <rect fill="none" x="397.5752" width="64.5723" height="30" y="280.1715" clip-path="url(#clipPath2)"/>
      <text x="404.5752" xml:space="preserve" y="299.3258" clip-path="url(#clipPath2)" font-family="monospace" stroke="none">Double?</text>
    </g>
    <g fill="rgb(204,255,255)" text-rendering="geometricPrecision" shape-rendering="geometricPrecision" transform="matrix(1,0,0,1,15,15)" stroke="rgb(204,255,255)">
      <rect x="346.2583" y="140.1715" clip-path="url(#clipPath2)" width="86.2461" rx="4" ry="4" height="30" stroke="none"/>
    </g>
    <g text-rendering="geometricPrecision" stroke-miterlimit="1.45" stroke-dasharray="6,2" shape-rendering="geometricPrecision" transform="matrix(1,0,0,1,15,15)" stroke-linecap="butt">
      <rect x="346.2583" y="140.1715" clip-path="url(#clipPath2)" fill="none" width="86.2461" rx="4" ry="4" height="30"/>
      <text x="353.2583" y="159.3258" clip-path="url(#clipPath2)" font-family="monospace" stroke-dasharray="none" stroke="none" xml:space="preserve">Structures</text>
    </g>
    <g fill="rgb(204,255,204)" text-rendering="geometricPrecision" shape-rendering="geometricPrecision" transform="matrix(1,0,0,1,15,15)" stroke="rgb(204,255,204)">
      <rect x="612.6182" y="140" clip-path="url(#clipPath2)" width="64.5723" rx="4" ry="4" height="30" stroke="none"/>
    </g>
    <g text-rendering="geometricPrecision" stroke-miterlimit="1.45" stroke-dasharray="6,2" shape-rendering="geometricPrecision" transform="matrix(1,0,0,1,15,15)" stroke-linecap="butt">
      <rect x="612.6182" y="140" clip-path="url(#clipPath2)" fill="none" width="64.5723" rx="4" ry="4" height="30"/>
      <text x="619.6182" y="159.1543" clip-path="url(#clipPath2)" font-family="monospace" stroke-dasharray="none" stroke="none" xml:space="preserve">Classes</text>
    </g>
    <g fill="rgb(204,255,204)" text-rendering="geometricPrecision" shape-rendering="geometricPrecision" transform="matrix(1,0,0,1,15,15)" stroke="rgb(204,255,204)">
      <rect x="794.4058" y="140" clip-path="url(#clipPath2)" width="86.2461" rx="4" ry="4" height="30" stroke="none"/>
    </g>
    <g text-rendering="geometricPrecision" stroke-miterlimit="1.45" stroke-dasharray="6,2" shape-rendering="geometricPrecision" transform="matrix(1,0,0,1,15,15)" stroke-linecap="butt">
      <rect x="794.4058" y="140" clip-path="url(#clipPath2)" fill="none" width="86.2461" rx="4" ry="4" height="30"/>
      <text x="801.4058" y="159.1543" clip-path="url(#clipPath2)" font-family="monospace" stroke-dasharray="none" stroke="none" xml:space="preserve">Interfaces</text>
    </g>
    <g fill="rgb(153,204,0)" text-rendering="geometricPrecision" shape-rendering="geometricPrecision" transform="matrix(1,0,0,1,15,15)" stroke="rgb(153,204,0)">
      <rect x="526.2397" width="50.123" height="30" y="210" clip-path="url(#clipPath2)" stroke="none"/>
    </g>
    <g text-rendering="geometricPrecision" stroke-miterlimit="1.45" shape-rendering="geometricPrecision" transform="matrix(1,0,0,1,15,15)" stroke-linecap="butt">
      <rect fill="none" x="526.2397" width="50.123" height="30" y="210" clip-path="url(#clipPath2)"/>
      <text x="533.2397" xml:space="preserve" y="229.1543" clip-path="url(#clipPath2)" font-family="monospace" stroke="none">Array</text>
    </g>
    <g fill="rgb(153,204,0)" text-rendering="geometricPrecision" shape-rendering="geometricPrecision" transform="matrix(1,0,0,1,15,15)" stroke="rgb(153,204,0)">
      <rect x="702.6089" width="71.7969" height="30" y="210" clip-path="url(#clipPath2)" stroke="none"/>
    </g>
    <g text-rendering="geometricPrecision" stroke-miterlimit="1.45" shape-rendering="geometricPrecision" transform="matrix(1,0,0,1,15,15)" stroke-linecap="butt">
      <rect fill="none" x="702.6089" width="71.7969" height="30" y="210" clip-path="url(#clipPath2)"/>
      <text x="709.6089" xml:space="preserve" y="229.1543" clip-path="url(#clipPath2)" font-family="monospace" stroke="none">Delegate</text>
    </g>
    <g fill="rgb(153,204,0)" text-rendering="geometricPrecision" shape-rendering="geometricPrecision" transform="matrix(1,0,0,1,15,15)" stroke="rgb(153,204,0)">
      <rect x="812.4673" width="50.123" height="30" y="210" clip-path="url(#clipPath2)" stroke="none"/>
    </g>
    <g text-rendering="geometricPrecision" stroke-miterlimit="1.45" shape-rendering="geometricPrecision" transform="matrix(1,0,0,1,15,15)" stroke-linecap="butt">
      <rect fill="none" x="812.4673" width="50.123" height="30" y="210" clip-path="url(#clipPath2)"/>
      <text x="819.4673" xml:space="preserve" y="229.1543" clip-path="url(#clipPath2)" font-family="monospace" stroke="none">IList</text>
    </g>
    <g fill="rgb(204,255,255)" text-rendering="geometricPrecision" shape-rendering="geometricPrecision" transform="matrix(1,0,0,1,15,15)" stroke="rgb(204,255,255)">
      <rect x="232.043" y="140.1715" clip-path="url(#clipPath2)" width="50.123" rx="4" ry="4" height="30" stroke="none"/>
    </g>
    <g text-rendering="geometricPrecision" stroke-miterlimit="1.45" stroke-dasharray="6,2" shape-rendering="geometricPrecision" transform="matrix(1,0,0,1,15,15)" stroke-linecap="butt">
      <rect x="232.043" y="140.1715" clip-path="url(#clipPath2)" fill="none" width="50.123" rx="4" ry="4" height="30"/>
      <text x="239.043" y="159.3258" clip-path="url(#clipPath2)" font-family="monospace" stroke-dasharray="none" stroke="none" xml:space="preserve">Enums</text>
    </g>
    <g fill="rgb(51,204,204)" text-rendering="geometricPrecision" shape-rendering="geometricPrecision" transform="matrix(1,0,0,1,15,15)" stroke="rgb(51,204,204)">
      <rect x="213.9814" width="86.2461" height="30" y="210.1715" clip-path="url(#clipPath2)" stroke="none"/>
    </g>
    <g text-rendering="geometricPrecision" stroke-miterlimit="1.45" shape-rendering="geometricPrecision" transform="matrix(1,0,0,1,15,15)" stroke-linecap="butt">
      <rect fill="none" x="213.9814" width="86.2461" height="30" y="210.1715" clip-path="url(#clipPath2)"/>
      <text x="220.9814" xml:space="preserve" y="229.3258" clip-path="url(#clipPath2)" font-family="monospace" stroke="none">ConsoleKey</text>
      <path fill="none" d="M595.7969 70.1715 L457.1632 28.0675" clip-path="url(#clipPath2)"/>
      <path fill="white" d="M442.8105 23.7084 L456.3765 34.0991 L459.8636 22.617 Z" clip-path="url(#clipPath2)" stroke="none"/>
      <path fill="none" d="M442.8105 23.7084 L456.3765 34.0991 L459.8636 22.617 Z" clip-path="url(#clipPath2)"/>
      <path fill="none" d="M230.1045 70.8919 L371.1102 28.0675" clip-path="url(#clipPath2)"/>
      <path fill="white" d="M385.4629 23.7084 L368.4098 22.617 L371.897 34.0991 Z" clip-path="url(#clipPath2)" stroke="none"/>
      <path fill="none" d="M385.4629 23.7084 L368.4098 22.617 L371.897 34.0991 Z" clip-path="url(#clipPath2)"/>
      <path fill="none" d="M548.9072 140 L605.8121 107.4481" clip-path="url(#clipPath2)"/>
      <path fill="white" d="M618.8323 100 L601.9648 102.7365 L607.9233 113.1527 Z" clip-path="url(#clipPath2)" stroke="none"/>
      <path fill="none" d="M618.8323 100 L601.9648 102.7365 L607.9233 113.1527 Z" clip-path="url(#clipPath2)"/>
      <path fill="none" d="M50.123 144.0763 L135.578 106.2438" clip-path="url(#clipPath2)"/>
      <path fill="white" d="M149.2939 100.1715 L132.2346 101.1622 L137.0925 112.135 Z" clip-path="url(#clipPath2)" stroke="none"/>
      <path fill="none" d="M149.2939 100.1715 L132.2346 101.1622 L137.0925 112.135 Z" clip-path="url(#clipPath2)"/>
      <path fill="none" d="M119.7365 140.1715 L154.6019 109.9891" clip-path="url(#clipPath2)"/>
      <path fill="white" d="M165.9427 100.1715 L149.9188 106.1073 L157.7729 115.1799 Z" clip-path="url(#clipPath2)" stroke="none"/>
      <path fill="none" d="M165.9427 100.1715 L149.9188 106.1073 L157.7729 115.1799 Z" clip-path="url(#clipPath2)"/>
      <path fill="none" d="M183.3691 140.1715 L183.3691 115.1715" clip-path="url(#clipPath2)"/>
      <path fill="white" d="M183.3691 100.1715 L177.3691 116.1715 L189.3691 116.1715 Z" clip-path="url(#clipPath2)" stroke="none"/>
      <path fill="none" d="M183.3691 100.1715 L177.3691 116.1715 L189.3691 116.1715 Z" clip-path="url(#clipPath2)"/>
      <path fill="none" d="M583.107 350 L567.4917 322.9973" clip-path="url(#clipPath2)"/>
      <path fill="white" d="M559.9826 310.0122 L562.7983 326.8666 L573.1863 320.8594 Z" clip-path="url(#clipPath2)" stroke="none"/>
      <path fill="none" d="M559.9826 310.0122 L562.7983 326.8666 L573.1863 320.8594 Z" clip-path="url(#clipPath2)"/>
      <path fill="none" d="M519.4955 350 L535.1108 322.9973" clip-path="url(#clipPath2)"/>
      <path fill="white" d="M542.6199 310.0122 L529.4162 320.8594 L539.8043 326.8666 Z" clip-path="url(#clipPath2)" stroke="none"/>
      <path fill="none" d="M542.6199 310.0122 L529.4162 320.8594 L539.8043 326.8666 Z" clip-path="url(#clipPath2)"/>
      <path fill="none" d="M778.8278 350 L758.3813 322.1096" clip-path="url(#clipPath2)"/>
      <path fill="white" d="M749.5128 310.0122 L754.1336 326.4636 L763.8116 319.3687 Z" clip-path="url(#clipPath2)" stroke="none"/>
      <path fill="none" d="M749.5128 310.0122 L754.1336 326.4636 L763.8116 319.3687 Z" clip-path="url(#clipPath2)"/>
      <path fill="none" d="M698.1869 350 L718.6333 322.1096" clip-path="url(#clipPath2)"/>
      <path fill="white" d="M727.5019 310.0122 L713.2031 319.3687 L722.881 326.4636 Z" clip-path="url(#clipPath2)" stroke="none"/>
      <path fill="none" d="M727.5019 310.0122 L713.2031 319.3687 L722.881 326.4636 Z" clip-path="url(#clipPath2)"/>
      <path fill="none" d="M357.5757 280.1715 L373.1909 253.1688" clip-path="url(#clipPath2)"/>
      <path fill="white" d="M380.7 240.1837 L367.4962 251.0309 L377.8843 257.0381 Z" clip-path="url(#clipPath2)" stroke="none"/>
      <path fill="none" d="M380.7 240.1837 L367.4962 251.0309 L377.8843 257.0381 Z" clip-path="url(#clipPath2)"/>
      <path fill="none" d="M421.187 280.1715 L405.5718 253.1688" clip-path="url(#clipPath2)"/>
      <path fill="white" d="M398.0627 240.1837 L400.8784 257.0381 L411.2664 251.0309 Z" clip-path="url(#clipPath2)" stroke="none"/>
      <path fill="none" d="M398.0627 240.1837 L400.8784 257.0381 L411.2664 251.0309 Z" clip-path="url(#clipPath2)"/>
      <path fill="none" d="M389.3813 210.1666 L389.3813 185.1824" clip-path="url(#clipPath2)"/>
      <path fill="white" d="M389.3813 170.1824 L383.3813 186.1824 L395.3813 186.1824 Z" clip-path="url(#clipPath2)" stroke="none"/>
      <path fill="none" d="M389.3813 170.1824 L383.3813 186.1824 L395.3813 186.1824 Z" clip-path="url(#clipPath2)"/>
      <path fill="none" d="M347.8117 141.0294 L241.9134 105.0026" clip-path="url(#clipPath2)"/>
      <path fill="white" d="M227.7127 100.1715 L240.9276 111.005 L244.7925 99.6444 Z" clip-path="url(#clipPath2)" stroke="none"/>
      <path fill="none" d="M227.7127 100.1715 L240.9276 111.005 L244.7925 99.6444 Z" clip-path="url(#clipPath2)"/>
      <path fill="none" d="M644.9043 140.0135 L644.9043 115" clip-path="url(#clipPath2)"/>
      <path fill="white" d="M644.9043 100 L638.9043 116 L650.9043 116 Z" clip-path="url(#clipPath2)" stroke="none"/>
      <path fill="none" d="M644.9043 100 L638.9043 116 L650.9043 116 Z" clip-path="url(#clipPath2)"/>
      <path fill="none" d="M796.9676 140.2781 L700.0953 105.1177" clip-path="url(#clipPath2)"/>
      <path fill="white" d="M685.9954 100 L698.9883 111.0988 L703.0824 99.8189 Z" clip-path="url(#clipPath2)" stroke="none"/>
      <path fill="none" d="M685.9954 100 L698.9883 111.0988 L703.0824 99.8189 Z" clip-path="url(#clipPath2)"/>
      <path fill="none" d="M551.3013 279.9951 L551.3013 255" clip-path="url(#clipPath2)"/>
      <path fill="white" d="M551.3013 240 L545.3013 256 L557.3013 256 Z" clip-path="url(#clipPath2)" stroke="none"/>
      <path fill="none" d="M551.3013 240 L545.3013 256 L557.3013 256 Z" clip-path="url(#clipPath2)"/>
      <path fill="none" d="M571.3591 210 L612.8177 178.9956" clip-path="url(#clipPath2)"/>
      <path fill="white" d="M624.8302 170.0122 L608.4236 174.7895 L615.6103 184.3995 Z" clip-path="url(#clipPath2)" stroke="none"/>
      <path fill="none" d="M624.8302 170.0122 L608.4236 174.7895 L615.6103 184.3995 Z" clip-path="url(#clipPath2)"/>
      <path fill="none" d="M738.5073 279.9951 L738.5073 255" clip-path="url(#clipPath2)"/>
      <path fill="white" d="M738.5073 240 L732.5073 256 L744.5073 256 Z" clip-path="url(#clipPath2)" stroke="none"/>
      <path fill="none" d="M738.5073 240 L732.5073 256 L744.5073 256 Z" clip-path="url(#clipPath2)"/>
      <path fill="none" d="M718.4495 210 L676.9908 178.9956" clip-path="url(#clipPath2)"/>
      <path fill="white" d="M664.9784 170.0122 L674.1983 184.3995 L681.385 174.7895 Z" clip-path="url(#clipPath2)" stroke="none"/>
      <path fill="none" d="M664.9784 170.0122 L674.1983 184.3995 L681.385 174.7895 Z" clip-path="url(#clipPath2)"/>
      <path fill="none" d="M837.5288 280 L837.5288 255" clip-path="url(#clipPath2)"/>
      <path fill="white" d="M837.5288 240 L831.5288 256 L843.5288 256 Z" clip-path="url(#clipPath2)" stroke="none"/>
      <path fill="none" d="M837.5288 240 L831.5288 256 L843.5288 256 Z" clip-path="url(#clipPath2)"/>
      <path fill="none" d="M837.5288 210 L837.5288 185.0122" clip-path="url(#clipPath2)"/>
      <path fill="white" d="M837.5288 170.0122 L831.5288 186.0122 L843.5288 186.0122 Z" clip-path="url(#clipPath2)" stroke="none"/>
      <path fill="none" d="M837.5288 170.0122 L831.5288 186.0122 L843.5288 186.0122 Z" clip-path="url(#clipPath2)"/>
      <path fill="none" d="M241.2989 140.1482 L210.1127 110.5056" clip-path="url(#clipPath2)"/>
      <path fill="white" d="M199.2405 100.1715 L206.7039 115.5435 L214.9712 106.8457 Z" clip-path="url(#clipPath2)" stroke="none"/>
      <path fill="none" d="M199.2405 100.1715 L206.7039 115.5435 L214.9712 106.8457 Z" clip-path="url(#clipPath2)"/>
      <path fill="none" d="M257.1045 210.1715 L257.1045 185.1837" clip-path="url(#clipPath2)"/>
      <path fill="white" d="M257.1045 170.1837 L251.1045 186.1837 L263.1045 186.1837 Z" clip-path="url(#clipPath2)" stroke="none"/>
      <path fill="none" d="M257.1045 170.1837 L251.1045 186.1837 L263.1045 186.1837 Z" clip-path="url(#clipPath2)"/>
    </g>
  </g>
</svg>
