<svg version="1.1" xmlns="http://www.w3.org/2000/svg" xmlns:xlink="http://www.w3.org/1999/xlink" width="573" height="455"><defs></defs><g><g transform="translate(-14,2) scale(1,1)"><path fill="#C0C0C0" stroke="none" d="M 408 330.5 C 408 324.1487248 413.1487248 319 419.5 319 C 425.8512752 319 431 324.1487248 431 330.5 C 431 336.8512752 425.8512752 342 419.5 342 C 413.1487248 342 408 336.8512752 408 330.5 Z" opacity="0.2"></path></g><g transform="translate(-14,2) scale(1,1)"><path fill="#ffffff" stroke="none" d="M 401 323.5 C 401 317.1487248 406.1487248 312 412.5 312 C 418.8512752 312 424 317.1487248 424 323.5 C 424 329.8512752 418.8512752 335 412.5 335 C 406.1487248 335 401 329.8512752 401 323.5 Z"></path></g><g transform="translate(-14,2) scale(1,1)"><path fill="none" stroke="#000000" d="M 401 323.5 C 401 317.1487248 406.1487248 312 412.5 312 C 418.8512752 312 424 317.1487248 424 323.5 C 424 329.8512752 418.8512752 335 412.5 335 C 406.1487248 335 401 329.8512752 401 323.5 Z" stroke-miterlimit="10"></path></g><g transform="translate(-14,2) scale(1,1)"><path fill="none" stroke="#000000" d="M 248 375 L 577 375" stroke-miterlimit="10"></path></g><g transform="translate(-14,2) scale(1,1)"><g><path fill="none" stroke="none"></path><text fill="#000000" stroke="none" font-family="Arial" font-size="13px" font-style="normal" font-weight="bold" text-decoration="none" x="406" y="354.5">AI</text></g></g><g transform="translate(-14,2) scale(1,1)"><g><path fill="none" stroke="none"></path><text fill="#000000" stroke="none" font-family="Arial" font-size="13px" font-style="normal" font-weight="normal" text-decoration="none" x="377.5" y="369.5">(from entity)</text></g></g><g transform="translate(-14,2) scale(1,1)"><g><path fill="none" stroke="none"></path><text fill="#000000" stroke="none" font-family="Arial" font-size="13px" font-style="normal" font-weight="normal" text-decoration="none" x="253" y="392.5">+setPersonality(personality: Personality)</text></g></g><g transform="translate(-14,2) scale(1,1)"><g><path fill="none" stroke="none"></path><text fill="#000000" stroke="none" font-family="Arial" font-size="13px" font-style="normal" font-weight="normal" text-decoration="none" x="253" y="407.5">+registerView(view: Output)</text></g></g><g transform="translate(-14,2) scale(1,1)"><g><path fill="none" stroke="none"></path><text fill="#000000" stroke="none" font-family="Arial" font-size="13px" font-style="normal" font-weight="normal" text-decoration="none" x="253" y="422.5">+computeSuggestion(s: Subject, e: Event): Suggestion</text></g></g><g transform="translate(-14,2) scale(1,1)"><g><path fill="none" stroke="none"></path><text fill="#000000" stroke="none" font-family="Arial" font-size="13px" font-style="normal" font-weight="normal" text-decoration="none" x="253" y="437.5">+registerInputSource(in: Input)</text></g></g><g transform="translate(-14,2) scale(1,1)"><path fill="#C0C0C0" stroke="none" d="M 98.5 354.5 C 98.5 348.1487248 103.6487248 343 110 343 C 116.3512752 343 121.5 348.1487248 121.5 354.5 C 121.5 360.8512752 116.3512752 366 110 366 C 103.6487248 366 98.5 360.8512752 98.5 354.5 Z" opacity="0.2"></path></g><g transform="translate(-14,2) scale(1,1)"><path fill="#ffffff" stroke="none" d="M 91.5 347.5 C 91.5 341.1487248 96.6487248 336 103 336 C 109.3512752 336 114.5 341.1487248 114.5 347.5 C 114.5 353.8512752 109.3512752 359 103 359 C 96.6487248 359 91.5 353.8512752 91.5 347.5 Z"></path></g><g transform="translate(-14,2) scale(1,1)"><path fill="none" stroke="#000000" d="M 91.5 347.5 C 91.5 341.1487248 96.6487248 336 103 336 C 109.3512752 336 114.5 341.1487248 114.5 347.5 C 114.5 353.8512752 109.3512752 359 103 359 C 96.6487248 359 91.5 353.8512752 91.5 347.5 Z" stroke-miterlimit="10"></path></g><g transform="translate(-14,2) scale(1,1)"><path fill="none" stroke="#000000" d="M 24 399 L 182 399" stroke-miterlimit="10"></path></g><g transform="translate(-14,2) scale(1,1)"><g><path fill="none" stroke="none"></path><text fill="#000000" stroke="none" font-family="Arial" font-size="13px" font-style="normal" font-weight="bold" text-decoration="none" x="83.5" y="378.5">Output</text></g></g><g transform="translate(-14,2) scale(1,1)"><g><path fill="none" stroke="none"></path><text fill="#000000" stroke="none" font-family="Arial" font-size="13px" font-style="normal" font-weight="normal" text-decoration="none" x="57.5" y="393.5">(from boundary)</text></g></g><g transform="translate(-14,2) scale(1,1)"><g><path fill="none" stroke="none"></path><text fill="#000000" stroke="none" font-family="Arial" font-size="13px" font-style="normal" font-weight="normal" text-decoration="none" x="29" y="416.5">+update(subject: Subject)</text></g></g><g transform="translate(-14,2) scale(1,1)"><path fill="#C0C0C0" stroke="none" d="M 407 66.5 C 407 60.1487248 412.1487248 55 418.5 55 C 424.8512752 55 430 60.1487248 430 66.5 C 430 72.8512752 424.8512752 78 418.5 78 C 412.1487248 78 407 72.8512752 407 66.5 Z" opacity="0.2"></path></g><g transform="translate(-14,2) scale(1,1)"><path fill="#ffffff" stroke="none" d="M 400 59.5 C 400 53.1487248 405.1487248 48 411.5 48 C 417.8512752 48 423 53.1487248 423 59.5 C 423 65.8512752 417.8512752 71 411.5 71 C 405.1487248 71 400 65.8512752 400 59.5 Z"></path></g><g transform="translate(-14,2) scale(1,1)"><path fill="none" stroke="#000000" d="M 400 59.5 C 400 53.1487248 405.1487248 48 411.5 48 C 417.8512752 48 423 53.1487248 423 59.5 C 423 65.8512752 417.8512752 71 411.5 71 C 405.1487248 71 400 65.8512752 400 59.5 Z" stroke-miterlimit="10"></path></g><g transform="translate(-14,2) scale(1,1)"><path fill="none" stroke="#000000" d="M 344 111 L 479 111" stroke-miterlimit="10"></path></g><g transform="translate(-14,2) scale(1,1)"><g><path fill="none" stroke="none"></path><text fill="#000000" stroke="none" font-family="Arial" font-size="13px" font-style="normal" font-weight="bold" text-decoration="none" x="397" y="90.5">Input</text></g></g><g transform="translate(-14,2) scale(1,1)"><g><path fill="none" stroke="none"></path><text fill="#000000" stroke="none" font-family="Arial" font-size="13px" font-style="normal" font-weight="normal" text-decoration="none" x="366" y="105.5">(from boundary)</text></g></g><g transform="translate(-14,2) scale(1,1)"><g><path fill="none" stroke="none"></path><text fill="#000000" stroke="none" font-family="Arial" font-size="13px" font-style="normal" font-weight="normal" text-decoration="none" x="349" y="128.5">+getBlocking(): Event</text></g></g><g transform="translate(-14,2) scale(1,1)"><path fill="none" stroke="#000000" d="M 412 311 L 411 135" stroke-miterlimit="10"></path></g><g transform="translate(-14,2) scale(1,1)"><path fill="#FFFFFF" stroke="none" d="M 415.2671913483613 145.138593492022 L 411 135 L 406.84829172914425 145.18642814894937 L 411.12499798235774 156.99964489496153"></path></g><g transform="translate(-14,2) scale(1,1)"><path fill="none" stroke="#000000" d="M 415.2671913483613 145.138593492022 L 411 135 L 406.84829172914425 145.18642814894937 L 411.12499798235774 156.99964489496153 L 415.2671913483613 145.138593492022" stroke-miterlimit="10"></path></g><g transform="translate(-14,2) scale(1,1)"><path fill="none" stroke="#000000" d="M 247 378 L 183 378" stroke-miterlimit="10"></path></g><g transform="translate(-14,2) scale(1,1)"><path fill="#FFFFFF" stroke="none" d="M 193.16267485762415 373.790482243984 L 183 378 L 193.16267485762415 382.209517756016 L 205 378"></path></g><g transform="translate(-14,2) scale(1,1)"><path fill="none" stroke="#000000" d="M 193.16267485762415 373.790482243984 L 183 378 L 193.16267485762415 382.209517756016 L 205 378 L 193.16267485762415 373.790482243984" stroke-miterlimit="10"></path></g><g transform="translate(-14,2) scale(1,1)"><rect fill="#C0C0C0" stroke="none" x="199" y="183" width="149" height="102" opacity="0.2"></rect></g><g transform="translate(-14,2) scale(1,1)"><rect fill="#ffffff" stroke="none" x="192" y="176" width="149" height="102"></rect></g><g transform="translate(-14,2) scale(1,1)"><path fill="none" stroke="#000000" d="M 192 176 L 341 176 L 341 278 L 192 278 L 192 176 Z Z" stroke-miterlimit="10"></path></g><g transform="translate(-14,2) scale(1,1)"><path fill="none" stroke="#000000" d="M 195 176 L 195 278" stroke-miterlimit="10"></path></g><g transform="translate(-14,2) scale(1,1)"><path fill="none" stroke="#000000" d="M 338 176 L 338 278" stroke-miterlimit="10"></path></g><g transform="translate(-14,2) scale(1,1)"><path fill="none" stroke="#000000" d="M 192 216 L 341 216" stroke-miterlimit="10"></path></g><g transform="translate(-14,2) scale(1,1)"><path fill="none" stroke="#000000" d="M 192 269 L 341 269" stroke-miterlimit="10"></path></g><g transform="translate(-14,2) scale(1,1)"><g><path fill="none" stroke="none"></path><text fill="#000000" stroke="none" font-family="Arial" font-size="13px" font-style="normal" font-weight="bold" text-decoration="none" x="240.5" y="195.5">GLaDOS</text></g></g><g transform="translate(-14,2) scale(1,1)"><g><path fill="none" stroke="none"></path><text fill="#000000" stroke="none" font-family="Arial" font-size="13px" font-style="normal" font-weight="normal" text-decoration="none" x="228" y="210.5">(from control)</text></g></g><g transform="translate(-14,2) scale(1,1)"><g><path fill="none" stroke="none"></path><text fill="#000000" stroke="none" font-family="Arial" font-size="13px" font-style="normal" font-weight="normal" text-decoration="none" x="197" y="233.5">-outputs: Output[0..*]</text></g></g><g transform="translate(-14,2) scale(1,1)"><g><path fill="none" stroke="none"></path><text fill="#000000" stroke="none" font-family="Arial" font-size="13px" font-style="normal" font-weight="normal" text-decoration="none" x="197" y="248.5">-inputs: Input[0..*]</text></g></g><g transform="translate(-14,2) scale(1,1)"><g><path fill="none" stroke="none"></path><text fill="#000000" stroke="none" font-family="Arial" font-size="13px" font-style="normal" font-weight="normal" text-decoration="none" x="197" y="263.5">-personality: Personality</text></g></g><g transform="translate(-14,2) scale(1,1)"><rect fill="#C0C0C0" stroke="none" x="199" y="15" width="119" height="72" opacity="0.2"></rect></g><g transform="translate(-14,2) scale(1,1)"><rect fill="#ffffff" stroke="none" x="192" y="8" width="119" height="72"></rect></g><g transform="translate(-14,2) scale(1,1)"><path fill="none" stroke="#000000" d="M 192 8 L 311 8 L 311 80 L 192 80 L 192 8 Z Z" stroke-miterlimit="10"></path></g><g transform="translate(-14,2) scale(1,1)"><path fill="none" stroke="#000000" d="M 192 48 L 311 48" stroke-miterlimit="10"></path></g><g transform="translate(-14,2) scale(1,1)"><path fill="none" stroke="#000000" d="M 192 58 L 311 58" stroke-miterlimit="10"></path></g><g transform="translate(-14,2) scale(1,1)"><g><path fill="none" stroke="none"></path><text fill="#000000" stroke="none" font-family="Arial" font-size="13px" font-style="italic" font-weight="bold" text-decoration="none" x="206.5" y="27.5">AbstractSensor</text></g></g><g transform="translate(-14,2) scale(1,1)"><g><path fill="none" stroke="none"></path><text fill="#000000" stroke="none" font-family="Arial" font-size="13px" font-style="normal" font-weight="normal" text-decoration="none" x="213" y="42.5">(from sensor)</text></g></g><g transform="translate(-14,2) scale(1,1)"><g><path fill="none" stroke="none"></path><text fill="#000000" stroke="none" font-family="Arial" font-size="13px" font-style="normal" font-weight="normal" text-decoration="none" x="197" y="75.5">+getName(): String</text></g></g><g transform="translate(-14,2) scale(1,1)"><path fill="none" stroke="#000000" d="M 312 62 L 400 60.94117647058823" stroke-miterlimit="10"></path></g><g transform="translate(-14,2) scale(1,1)"><rect fill="#C0C0C0" stroke="none" x="63" y="111" width="100" height="59" opacity="0.2"></rect></g><g transform="translate(-14,2) scale(1,1)"><rect fill="#ffffff" stroke="none" x="56" y="104" width="100" height="59"></rect></g><g transform="translate(-14,2) scale(1,1)"><path fill="none" stroke="#000000" d="M 56 104 L 156 104 L 156 163 L 56 163 L 56 104 Z Z" stroke-miterlimit="10"></path></g><g transform="translate(-14,2) scale(1,1)"><path fill="none" stroke="#000000" d="M 56 144 L 156 144" stroke-miterlimit="10"></path></g><g transform="translate(-14,2) scale(1,1)"><path fill="none" stroke="#000000" d="M 56 154 L 156 154" stroke-miterlimit="10"></path></g><g transform="translate(-14,2) scale(1,1)"><g><path fill="none" stroke="none"></path><text fill="#000000" stroke="none" font-family="Arial" font-size="13px" font-style="normal" font-weight="bold" text-decoration="none" x="64.5" y="123.5">MonitoringGUI</text></g></g><g transform="translate(-14,2) scale(1,1)"><g><path fill="none" stroke="none"></path><text fill="#000000" stroke="none" font-family="Arial" font-size="13px" font-style="normal" font-weight="normal" text-decoration="none" x="78.5" y="138.5">(from gui)</text></g></g><g transform="translate(-14,2) scale(1,1)"><path fill="none" stroke="#000000" d="M 106 164 L 103.91666666666667 336" stroke-miterlimit="10"></path></g><g transform="translate(-14,2) scale(1,1)"><path fill="none" stroke="#000000" d="M 317 279 L 401 320.9375" stroke-miterlimit="10"></path></g><g transform="translate(-14,2) scale(1,1)"><path fill="none" stroke="#000000" d="M 210 279 L 150 335" stroke-miterlimit="10"></path></g><g transform="translate(-14,2) scale(1,1)"><path fill="#FFFFFF" stroke="none" d="M 154.55724620396126 324.98843133987083 L 150 335 L 160.30170778424971 331.1432116044656 L 166.08321590134312 319.98899849207976"></path></g><g transform="translate(-14,2) scale(1,1)"><path fill="none" stroke="#000000" d="M 154.55724620396126 324.98843133987083 L 150 335 L 160.30170778424971 331.1432116044656 L 166.08321590134312 319.98899849207976 L 154.55724620396126 324.98843133987083" stroke-miterlimit="10"></path></g><g transform="translate(-14,2) scale(1,1)"><g><path fill="none" stroke="none"></path><text fill="#000000" stroke="none" font-family="Arial" font-size="13px" font-style="normal" font-weight="normal" text-decoration="none" x="175" y="291">0..*</text></g></g></g></svg>