<svg version="1.1" xmlns="http://www.w3.org/2000/svg" xmlns:xlink="http://www.w3.org/1999/xlink" width="349" height="376"><defs></defs><g><g transform="translate(10,-6) scale(1,1)"><path fill="#C0C0C0" stroke="none" d="M 160 274.5 C 160 268.1487248 165.1487248 263 171.5 263 C 177.8512752 263 183 268.1487248 183 274.5 C 183 280.8512752 177.8512752 286 171.5 286 C 165.1487248 286 160 280.8512752 160 274.5 Z" opacity="0.2"></path></g><g transform="translate(10,-6) scale(1,1)"><path fill="#ffffff" stroke="none" d="M 153 267.5 C 153 261.1487248 158.1487248 256 164.5 256 C 170.8512752 256 176 261.1487248 176 267.5 C 176 273.8512752 170.8512752 279 164.5 279 C 158.1487248 279 153 273.8512752 153 267.5 Z"></path></g><g transform="translate(10,-6) scale(1,1)"><path fill="none" stroke="#000000" d="M 153 267.5 C 153 261.1487248 158.1487248 256 164.5 256 C 170.8512752 256 176 261.1487248 176 267.5 C 176 273.8512752 170.8512752 279 164.5 279 C 158.1487248 279 153 273.8512752 153 267.5 Z" stroke-miterlimit="10"></path></g><g transform="translate(10,-6) scale(1,1)"><path fill="none" stroke="#000000" d="M 0 304 L 329 304" stroke-miterlimit="10"></path></g><g transform="translate(10,-6) scale(1,1)"><g><path fill="none" stroke="none"></path><text fill="#000000" stroke="none" font-family="Arial" font-size="13px" font-style="normal" font-weight="bold" text-decoration="none" x="158" y="298.5">AI</text></g></g><g transform="translate(10,-6) scale(1,1)"><g><path fill="none" stroke="none"></path><text fill="#000000" stroke="none" font-family="Arial" font-size="13px" font-style="normal" font-weight="normal" text-decoration="none" x="5" y="321.5">+setPersonality(personality: Personality)</text></g></g><g transform="translate(10,-6) scale(1,1)"><g><path fill="none" stroke="none"></path><text fill="#000000" stroke="none" font-family="Arial" font-size="13px" font-style="normal" font-weight="normal" text-decoration="none" x="5" y="336.5">+registerView(view: Output)</text></g></g><g transform="translate(10,-6) scale(1,1)"><g><path fill="none" stroke="none"></path><text fill="#000000" stroke="none" font-family="Arial" font-size="13px" font-style="normal" font-weight="normal" text-decoration="none" x="5" y="351.5">+computeSuggestion(s: Subject, e: Event): Suggestion</text></g></g><g transform="translate(10,-6) scale(1,1)"><g><path fill="none" stroke="none"></path><text fill="#000000" stroke="none" font-family="Arial" font-size="13px" font-style="normal" font-weight="normal" text-decoration="none" x="5" y="366.5">+registerInputSource(in: Input)</text></g></g><g transform="translate(10,-6) scale(1,1)"><path fill="#C0C0C0" stroke="none" d="M 163 162.5 C 163 156.1487248 168.1487248 151 174.5 151 C 180.8512752 151 186 156.1487248 186 162.5 C 186 168.8512752 180.8512752 174 174.5 174 C 168.1487248 174 163 168.8512752 163 162.5 Z" opacity="0.2"></path></g><g transform="translate(10,-6) scale(1,1)"><path fill="#ffffff" stroke="none" d="M 156 155.5 C 156 149.1487248 161.1487248 144 167.5 144 C 173.8512752 144 179 149.1487248 179 155.5 C 179 161.8512752 173.8512752 167 167.5 167 C 161.1487248 167 156 161.8512752 156 155.5 Z"></path></g><g transform="translate(10,-6) scale(1,1)"><path fill="none" stroke="#000000" d="M 156 155.5 C 156 149.1487248 161.1487248 144 167.5 144 C 173.8512752 144 179 149.1487248 179 155.5 C 179 161.8512752 173.8512752 167 167.5 167 C 161.1487248 167 156 161.8512752 156 155.5 Z" stroke-miterlimit="10"></path></g><g transform="translate(10,-6) scale(1,1)"><g><path fill="none" stroke="none"></path><text fill="#000000" stroke="none" font-family="Arial" font-size="13px" font-style="normal" font-weight="bold" text-decoration="none" x="135" y="186.5">Personality</text></g></g><g transform="translate(10,-6) scale(1,1)"><path fill="none" stroke="#000000" d="M 165 255 L 166 193" stroke-miterlimit="10"></path></g><g transform="translate(10,-6) scale(1,1)"><path fill="#000000" stroke="none" d="M 170.04507752489903 203.2292398455387 L 166 193 L 161.62713688711736 203.09346660944544 L 165.6452074361983 214.99713895570673"></path></g><g transform="translate(10,-6) scale(1,1)"><path fill="none" stroke="#000000" d="M 170.04507752489903 203.2292398455387 L 166 193 L 161.62713688711736 203.09346660944544 L 165.6452074361983 214.99713895570673 L 170.04507752489903 203.2292398455387" stroke-miterlimit="10"></path></g><g transform="translate(10,-6) scale(1,1)"><g><path fill="none" stroke="none"></path><text fill="#000000" stroke="none" font-family="Arial" font-size="13px" font-style="normal" font-weight="normal" text-decoration="none" x="136" y="235">+has</text></g></g><g transform="translate(10,-6) scale(1,1)"><rect fill="#C0C0C0" stroke="none" x="111" y="23" width="130" height="87" opacity="0.2"></rect></g><g transform="translate(10,-6) scale(1,1)"><rect fill="#ffffff" stroke="none" x="104" y="16" width="130" height="87"></rect></g><g transform="translate(10,-6) scale(1,1)"><path fill="none" stroke="#000000" d="M 104 16 L 234 16 L 234 103 L 104 103 L 104 16 Z Z" stroke-miterlimit="10"></path></g><g transform="translate(10,-6) scale(1,1)"><path fill="none" stroke="#000000" d="M 104 56 L 234 56" stroke-miterlimit="10"></path></g><g transform="translate(10,-6) scale(1,1)"><g><path fill="none" stroke="none"></path><text fill="#000000" stroke="none" font-family="Arial" font-size="13px" font-style="italic" font-weight="bold" text-decoration="none" x="112" y="35.5">AbstractPersonality</text></g></g><g transform="translate(10,-6) scale(1,1)"><g><path fill="none" stroke="none"></path><text fill="#000000" stroke="none" font-family="Arial" font-size="13px" font-style="normal" font-weight="normal" text-decoration="none" x="118.5" y="50.5">(from personality)</text></g></g><g transform="translate(10,-6) scale(1,1)"><g><path fill="none" stroke="none"></path><text fill="#000000" stroke="none" font-family="Arial" font-size="13px" font-style="italic" font-weight="normal" text-decoration="none" x="109" y="73.5">#makeCake(): Cake</text></g></g><g transform="translate(10,-6) scale(1,1)"><g><path fill="none" stroke="none"></path><text fill="#000000" stroke="none" font-family="Arial" font-size="13px" font-style="normal" font-weight="normal" text-decoration="none" x="109" y="88.5">+onSuccess()</text></g></g><g transform="translate(10,-6) scale(1,1)"><path fill="none" stroke="#000000" d="M 168 104 L 167 144" stroke-miterlimit="10"></path></g></g></svg>