<svg version="1.1" xmlns="http://www.w3.org/2000/svg" xmlns:xlink="http://www.w3.org/1999/xlink" width="276" height="331"><defs></defs><g><g transform="translate(2,2) scale(1,1)"><rect fill="#C0C0C0" stroke="none" x="71" y="239" width="149" height="87" opacity="0.2"></rect></g><g transform="translate(2,2) scale(1,1)"><rect fill="#ffffff" stroke="none" x="64" y="232" width="149" height="87"></rect></g><g transform="translate(2,2) scale(1,1)"><path fill="none" stroke="#000000" d="M 64 232 L 213 232 L 213 319 L 64 319 L 64 232 Z Z" stroke-miterlimit="10"></path></g><g transform="translate(2,2) scale(1,1)"><path fill="none" stroke="#000000" d="M 67 232 L 67 319" stroke-miterlimit="10"></path></g><g transform="translate(2,2) scale(1,1)"><path fill="none" stroke="#000000" d="M 210 232 L 210 319" stroke-miterlimit="10"></path></g><g transform="translate(2,2) scale(1,1)"><path fill="none" stroke="#000000" d="M 64 257 L 213 257" stroke-miterlimit="10"></path></g><g transform="translate(2,2) scale(1,1)"><path fill="none" stroke="#000000" d="M 64 310 L 213 310" stroke-miterlimit="10"></path></g><g transform="translate(2,2) scale(1,1)"><g><path fill="none" stroke="none"></path><text fill="#000000" stroke="none" font-family="Arial" font-size="13px" font-style="normal" font-weight="bold" text-decoration="none" x="112.5" y="251.5">GLaDOS</text></g></g><g transform="translate(2,2) scale(1,1)"><g><path fill="none" stroke="none"></path><text fill="#000000" stroke="none" font-family="Arial" font-size="13px" font-style="normal" font-weight="normal" text-decoration="none" x="69" y="274.5">-outputs: Output[0..*]</text></g></g><g transform="translate(2,2) scale(1,1)"><g><path fill="none" stroke="none"></path><text fill="#000000" stroke="none" font-family="Arial" font-size="13px" font-style="normal" font-weight="normal" text-decoration="none" x="69" y="289.5">-inputs: Input[0..*]</text></g></g><g transform="translate(2,2) scale(1,1)"><g><path fill="none" stroke="none"></path><text fill="#000000" stroke="none" font-family="Arial" font-size="13px" font-style="normal" font-weight="normal" text-decoration="none" x="69" y="304.5">-personality: Personality</text></g></g><g transform="translate(2,2) scale(1,1)"><path fill="#C0C0C0" stroke="none" d="M 138.5 106.5 C 138.5 100.1487248 143.6487248 95 150 95 C 156.3512752 95 161.5 100.1487248 161.5 106.5 C 161.5 112.8512752 156.3512752 118 150 118 C 143.6487248 118 138.5 112.8512752 138.5 106.5 Z" opacity="0.2"></path></g><g transform="translate(2,2) scale(1,1)"><path fill="#ffffff" stroke="none" d="M 131.5 99.5 C 131.5 93.1487248 136.6487248 88 143 88 C 149.3512752 88 154.5 93.1487248 154.5 99.5 C 154.5 105.8512752 149.3512752 111 143 111 C 136.6487248 111 131.5 105.8512752 131.5 99.5 Z"></path></g><g transform="translate(2,2) scale(1,1)"><path fill="none" stroke="#000000" d="M 131.5 99.5 C 131.5 93.1487248 136.6487248 88 143 88 C 149.3512752 88 154.5 93.1487248 154.5 99.5 C 154.5 105.8512752 149.3512752 111 143 111 C 136.6487248 111 131.5 105.8512752 131.5 99.5 Z" stroke-miterlimit="10"></path></g><g transform="translate(2,2) scale(1,1)"><path fill="none" stroke="#000000" d="M 64 151 L 222 151" stroke-miterlimit="10"></path></g><g transform="translate(2,2) scale(1,1)"><g><path fill="none" stroke="none"></path><text fill="#000000" stroke="none" font-family="Arial" font-size="13px" font-style="normal" font-weight="bold" text-decoration="none" x="123.5" y="130.5">Output</text></g></g><g transform="translate(2,2) scale(1,1)"><g><path fill="none" stroke="none"></path><text fill="#000000" stroke="none" font-family="Arial" font-size="13px" font-style="normal" font-weight="normal" text-decoration="none" x="97.5" y="145.5">(from boundary)</text></g></g><g transform="translate(2,2) scale(1,1)"><g><path fill="none" stroke="none"></path><text fill="#000000" stroke="none" font-family="Arial" font-size="13px" font-style="normal" font-weight="normal" text-decoration="none" x="69" y="168.5">+update(subject: Subject)</text></g></g><g transform="translate(2,2) scale(1,1)"><rect fill="#C0C0C0" stroke="none" x="15" y="15" width="100" height="39" opacity="0.2"></rect></g><g transform="translate(2,2) scale(1,1)"><rect fill="#ffffff" stroke="none" x="8" y="8" width="100" height="39"></rect></g><g transform="translate(2,2) scale(1,1)"><path fill="none" stroke="#000000" d="M 8 8 L 108 8 L 108 47 L 8 47 L 8 8 Z Z" stroke-miterlimit="10"></path></g><g transform="translate(2,2) scale(1,1)"><g><path fill="none" stroke="none"></path><text fill="#000000" stroke="none" font-family="Arial" font-size="13px" font-style="normal" font-weight="bold" text-decoration="none" x="16.5" y="27.5">MonitoringGUI</text></g></g><g transform="translate(2,2) scale(1,1)"><g><path fill="none" stroke="none"></path><text fill="#000000" stroke="none" font-family="Arial" font-size="13px" font-style="normal" font-weight="normal" text-decoration="none" x="30.5" y="42.5">(from gui)</text></g></g><g transform="translate(2,2) scale(1,1)"><path fill="none" stroke="#000000" d="M 75 48 L 131.5 95.16666666666667" stroke-miterlimit="10"></path></g><g transform="translate(2,2) scale(1,1)"><path fill="none" stroke="#000000" d="M 140 231 L 141 175" stroke-miterlimit="10"></path></g><g transform="translate(2,2) scale(1,1)"><path fill="#FFFFFF" stroke="none" d="M 145.0273993468339 185.23621289838786 L 141 175 L 136.60970583457325 185.0858969428118 L 140.60720547882858 196.99649318559977"></path></g><g transform="translate(2,2) scale(1,1)"><path fill="none" stroke="#000000" d="M 145.0273993468339 185.23621289838786 L 141 175 L 136.60970583457325 185.0858969428118 L 140.60720547882858 196.99649318559977 L 145.0273993468339 185.23621289838786" stroke-miterlimit="10"></path></g><g transform="translate(2,2) scale(1,1)"><g><path fill="none" stroke="none"></path><text fill="#000000" stroke="none" font-family="Arial" font-size="13px" font-style="normal" font-weight="normal" text-decoration="none" x="142" y="216">0..*</text></g></g><g transform="translate(2,2) scale(1,1)"><rect fill="#C0C0C0" stroke="none" x="207" y="15" width="64" height="39" opacity="0.2"></rect></g><g transform="translate(2,2) scale(1,1)"><rect fill="#ffffff" stroke="none" x="200" y="8" width="64" height="39"></rect></g><g transform="translate(2,2) scale(1,1)"><path fill="none" stroke="#000000" d="M 200 8 L 264 8 L 264 47 L 200 47 L 200 8 Z Z" stroke-miterlimit="10"></path></g><g transform="translate(2,2) scale(1,1)"><g><path fill="none" stroke="none"></path><text fill="#000000" stroke="none" font-family="Arial" font-size="13px" font-style="normal" font-weight="bold" text-decoration="none" x="212.5" y="27.5">Logger</text></g></g><g transform="translate(2,2) scale(1,1)"><g><path fill="none" stroke="none"></path><text fill="#000000" stroke="none" font-family="Arial" font-size="13px" font-style="normal" font-weight="normal" text-decoration="none" x="204.5" y="42.5">(from gui)</text></g></g><g transform="translate(2,2) scale(1,1)"><path fill="none" stroke="#000000" d="M 214 48 L 154.5 95.36842105263158" stroke-miterlimit="10"></path></g></g></svg>